<?xml version="1.0" encoding="UTF-8"?>
<svg id="Calque_2" data-name="Calque 2" xmlns="http://www.w3.org/2000/svg" viewBox="0 0 90 90">
  <defs>
    <style>
      .cls-1 {
        fill: #999;
      }

      .cls-1, .cls-2, .cls-3 {
        stroke-width: 0px;
      }

      .cls-2, .cls-4 {
        opacity: .8;
      }

      .cls-2, .cls-3 {
        fill: #fff;
      }
    </style>
  </defs>
  <g id="Object">
    <g>
      <g>
        <rect class="cls-1" width="90" height="90"/>
        <path class="cls-2" d="m73.52,48.12c0,15.89-12.77,28.77-28.52,28.77s-28.52-12.88-28.52-28.77h57.04Z"/>
      </g>
      <g class="cls-4">
        <path class="cls-3" d="m28.6,14.6c.65,0,1.16.51,1.16,1.16v.59c1.59.19,2.94.7,4.19,1.48.43.24.81.65.81,1.3,0,.84-.67,1.48-1.51,1.48-.27,0-.54-.08-.81-.24-.95-.57-1.86-.97-2.78-1.19v5.18c4.1,1.03,5.86,2.67,5.86,5.56s-2.32,4.94-5.75,5.26v1.62c0,.65-.51,1.16-1.16,1.16s-1.19-.51-1.19-1.16v-1.67c-2.02-.22-3.89-.94-5.53-2.11-.46-.3-.73-.73-.73-1.3,0-.84.65-1.48,1.48-1.48.32,0,.65.11.89.3,1.27.92,2.51,1.54,3.99,1.81v-5.32c-3.94-1.03-5.78-2.51-5.78-5.56,0-2.89,2.29-4.89,5.67-5.16v-.57c0-.65.54-1.16,1.19-1.16Zm-1.08,9.2v-4.78c-1.73.16-2.59,1.08-2.59,2.27s.51,1.84,2.59,2.51Zm2.13,3.75v4.91c1.73-.19,2.67-1.05,2.67-2.35,0-1.19-.59-1.92-2.67-2.56Z"/>
      </g>
      <g class="cls-4">
        <path class="cls-3" d="m61.93,14.6c.65,0,1.16.51,1.16,1.16v.59c1.59.19,2.94.7,4.19,1.48.43.24.81.65.81,1.3,0,.84-.67,1.48-1.51,1.48-.27,0-.54-.08-.81-.24-.95-.57-1.86-.97-2.78-1.19v5.18c4.1,1.03,5.86,2.67,5.86,5.56s-2.32,4.94-5.75,5.26v1.62c0,.65-.51,1.16-1.16,1.16s-1.19-.51-1.19-1.16v-1.67c-2.02-.22-3.89-.94-5.53-2.11-.46-.3-.73-.73-.73-1.3,0-.84.65-1.48,1.48-1.48.32,0,.65.11.89.3,1.27.92,2.51,1.54,3.99,1.81v-5.32c-3.94-1.03-5.78-2.51-5.78-5.56,0-2.89,2.29-4.89,5.67-5.16v-.57c0-.65.54-1.16,1.19-1.16Zm-1.08,9.2v-4.78c-1.73.16-2.59,1.08-2.59,2.27s.51,1.84,2.59,2.51Zm2.13,3.75v4.91c1.73-.19,2.67-1.05,2.67-2.35,0-1.19-.59-1.92-2.67-2.56Z"/>
      </g>
    </g>
  </g>
</svg>