<?xml version="1.0" encoding="UTF-8"?>
<svg id="Calque_2" data-name="Calque 2" xmlns="http://www.w3.org/2000/svg" viewBox="0 0 90 90">
  <defs>
    <style>
      .cls-1 {
        fill: #999;
      }

      .cls-1, .cls-2, .cls-3 {
        stroke-width: 0px;
      }

      .cls-2, .cls-4 {
        opacity: .8;
      }

      .cls-2, .cls-3 {
        fill: #fff;
      }
    </style>
  </defs>
  <g id="Object">
    <g>
      <rect class="cls-1" width="90" height="90"/>
      <g class="cls-4">
        <path class="cls-3" d="m36.2,30.79c.54-.08.78-.54.53-1.03l-1.86-3.55c-.26-.49-.88-.7-1.38-.48l-11.89,5.3c-.5.22-.91.76-.91,1.19s.45.72.99.64l14.53-2.08Z"/>
      </g>
      <g class="cls-4">
        <path class="cls-3" d="m53.8,30.79c-.54-.08-.78-.54-.53-1.03l1.86-3.55c.26-.49.88-.7,1.38-.48l11.89,5.3c.5.22.91.76.91,1.19s-.45.72-.99.64l-14.53-2.08Z"/>
      </g>
      <path class="cls-2" d="m69.32,56.74c0,12.27-10.89,22.21-24.32,22.21s-24.32-9.94-24.32-22.21,10.89-22.21,24.32-22.21,24.32,9.94,24.32,22.21Z"/>
    </g>
  </g>
</svg>