<?xml version="1.0" encoding="UTF-8"?>
<svg id="Calque_2" data-name="Calque 2" xmlns="http://www.w3.org/2000/svg" viewBox="0 0 90 90">
  <defs>
    <style>
      .cls-1 {
        fill: #999;
      }

      .cls-1, .cls-2 {
        stroke-width: 0px;
      }

      .cls-2 {
        fill: #fff;
      }

      .cls-2, .cls-3, .cls-4 {
        opacity: .8;
      }

      .cls-3 {
        stroke-width: 2.71px;
      }

      .cls-3, .cls-4 {
        fill: none;
        stroke: #fff;
        stroke-linecap: round;
        stroke-linejoin: round;
      }

      .cls-4 {
        stroke-width: 2.65px;
      }
    </style>
  </defs>
  <g id="Object">
    <g>
      <rect class="cls-1" width="90" height="90"/>
      <path class="cls-2" d="m64.2,52.79c.18-1.03-.5-2.01-1.53-2.19-1.03-.18-2.01.5-2.19,1.53-.66,3.67-7.27,10.41-16.1,10.41-7.38,0-12.55-3.47-16.27-10.92-.47-.93-1.6-1.31-2.54-.85-.93.47-1.31,1.6-.85,2.54,4.37,8.76,10.8,13.01,19.65,13.01,2.49,0,4.84-.45,7.01-1.2,1.56,3.79,6.05,10.42,10.3,8.16,4.39-2.34,2.6-8.03-1.62-13.56,2.27-2.28,3.75-4.79,4.14-6.92Z"/>
      <polyline class="cls-3" points="28.62 22.15 37.8 29.67 28.62 37.65"/>
      <polyline class="cls-4" points="61.38 22.38 52.31 29.67 61.38 37.42"/>
    </g>
  </g>
</svg>