<?xml version="1.0" encoding="UTF-8"?>
<svg id="Calque_2" data-name="Calque 2" xmlns="http://www.w3.org/2000/svg" viewBox="0 0 90 90">
  <defs>
    <style>
      .cls-1 {
        fill: #999;
      }

      .cls-1, .cls-2, .cls-3 {
        stroke-width: 0px;
      }

      .cls-2, .cls-4 {
        opacity: .8;
      }

      .cls-2, .cls-3 {
        fill: #fff;
      }
    </style>
  </defs>
  <g id="Object">
    <g>
      <g>
        <rect class="cls-1" width="90" height="90"/>
        <path class="cls-2" d="m35.7,38.53c0,3.72-3.01,6.74-6.72,6.74s-6.71-3.02-6.71-6.74,3.01-6.73,6.71-6.73,6.72,3.02,6.72,6.73Z"/>
        <path class="cls-2" d="m67.42,38.53c0,3.72-3.01,6.74-6.71,6.74s-6.71-3.02-6.71-6.74,3.01-6.73,6.71-6.73,6.71,3.02,6.71,6.73Z"/>
      </g>
      <g class="cls-4">
        <path class="cls-3" d="m25.4,72.38c0-10.92,8.77-19.77,19.6-19.77s19.6,8.85,19.6,19.77l-12.26-6c-4.07-1.99-10.74-1.98-14.8.02l-12.13,5.98Z"/>
      </g>
      <g class="cls-4">
        <path class="cls-3" d="m52.36,24.85c-.54.12-.74.6-.44,1.07l2.14,3.39c.29.47.93.63,1.41.37l11.43-6.22c.48-.26.85-.83.82-1.26-.03-.43-.5-.68-1.04-.56l-14.32,3.22Z"/>
      </g>
      <g class="cls-4">
        <path class="cls-3" d="m38.65,24.85c.54.12.74.6.44,1.07l-2.14,3.39c-.29.47-.93.63-1.41.37l-11.43-6.22c-.48-.26-.85-.83-.82-1.26.03-.43.5-.68,1.04-.56l14.32,3.22Z"/>
      </g>
    </g>
  </g>
</svg>