<?xml version="1.0" encoding="UTF-8"?>
<svg id="Calque_2" data-name="Calque 2" xmlns="http://www.w3.org/2000/svg" viewBox="0 0 90 90">
  <defs>
    <style>
      .cls-1 {
        fill: #999;
      }

      .cls-1, .cls-2 {
        stroke-width: 0px;
      }

      .cls-2 {
        fill: #fff;
        opacity: .8;
      }
    </style>
  </defs>
  <g id="Object">
    <g>
      <g>
        <rect class="cls-1" width="90" height="90"/>
        <path class="cls-2" d="m32.15,27.06c-1.62,3.71-4.94,7.35-8.65,5.73-3.71-1.62-5.41-5.94-3.79-9.66,1.62-3.71,7.94-9.99,11.66-8.37,3.71,1.62,2.4,8.58.78,12.29Z"/>
        <path class="cls-2" d="m57.85,27.06c1.62,3.71,4.94,7.35,8.65,5.73,3.71-1.62,5.41-5.94,3.79-9.66-1.62-3.71-7.94-9.99-11.66-8.37-3.71,1.62-2.4,8.58-.78,12.29Z"/>
      </g>
      <path class="cls-2" d="m53.6,59.55c0,11.02,10.14,19.95-8.66,19.95s-9.53-8.93-9.53-19.95-6.42-19.95,9.53-19.95,8.66,8.93,8.66,19.95Z"/>
    </g>
  </g>
</svg>