<?xml version="1.0" encoding="UTF-8"?>
<svg id="Calque_2" data-name="Calque 2" xmlns="http://www.w3.org/2000/svg" viewBox="0 0 90 90">
  <defs>
    <style>
      .cls-1 {
        fill: #999;
      }

      .cls-1, .cls-2 {
        stroke-width: 0px;
      }

      .cls-2 {
        fill: #fff;
        opacity: .8;
      }
    </style>
  </defs>
  <g id="Object">
    <g>
      <rect class="cls-1" width="90" height="90"/>
      <path class="cls-2" d="m24.33,60.28c3.36,0,8.9-5.64,12.58-5.64s6.36,2.17,7.84,2.17,4.2-2.17,6.59-2.17c4.88,0,10.74,4.88,14.32,4.88,0,0-6.94,10.85-20.67,10.85s-20.67-10.09-20.67-10.09Z"/>
      <path class="cls-2" d="m69.41,28.45c-.09-.26-.38-.39-.64-.3-.26.09-.4.38-.3.64.02.07.09.24-.17.46-.38.33-1.17.48-1.8.15,0,0,0,0-.01,0-.04-.07-.07-.15-.12-.21.72-.45,1.28-1.08,1.53-1.71.36-.86.21-1.68-.4-2.27-.2-.19-.52-.18-.71.01-.19.2-.19.52.01.71.38.37.3.83.17,1.16-.2.48-.65.96-1.23,1.3-.91-.94-2.18-1.53-3.59-1.53-2.76,0-5,2.24-5,5s2.24,5,5,5,5-2.24,5-5c0-.46-.08-.89-.2-1.31.1.01.2.04.3.04.67,0,1.29-.24,1.68-.58.48-.42.65-1,.46-1.56Z"/>
      <path class="cls-2" d="m20.59,28.45c.09-.26.38-.39.64-.3.26.09.4.38.3.64-.02.07-.09.24.17.46.38.33,1.17.48,1.8.15,0,0,0,0,.01,0,.04-.07.07-.15.12-.21-.72-.45-1.28-1.08-1.53-1.71-.36-.86-.21-1.68.4-2.27.2-.19.52-.18.71.01.19.2.19.52-.01.71-.38.37-.3.83-.17,1.16.2.48.65.96,1.23,1.3.91-.94,2.18-1.53,3.59-1.53,2.76,0,5,2.24,5,5s-2.24,5-5,5-5-2.24-5-5c0-.46.08-.89.2-1.31-.1.01-.2.04-.3.04-.67,0-1.29-.24-1.68-.58-.48-.42-.65-1-.46-1.56Z"/>
    </g>
  </g>
</svg>