<?xml version="1.0" encoding="UTF-8"?>
<svg id="Calque_2" data-name="Calque 2" xmlns="http://www.w3.org/2000/svg" viewBox="0 0 90 90">
  <defs>
    <style>
      .cls-1 {
        fill: #999;
      }

      .cls-1, .cls-2, .cls-3 {
        stroke-width: 0px;
      }

      .cls-2, .cls-4 {
        opacity: .8;
      }

      .cls-2, .cls-3 {
        fill: #fff;
      }
    </style>
  </defs>
  <g id="Object">
    <g>
      <rect class="cls-1" x="0" width="90" height="90"/>
      <g class="cls-4">
        <path class="cls-3" d="m36.88,27.79c.54-.08.78-.54.53-1.03l-1.86-3.55c-.26-.49-.88-.7-1.38-.48l-11.89,5.3c-.5.22-.91.76-.91,1.19s.45.72.99.64l14.53-2.08Z"/>
      </g>
      <g class="cls-4">
        <path class="cls-3" d="m54.48,27.79c-.54-.08-.78-.54-.53-1.03l1.86-3.55c.26-.49.88-.7,1.38-.48l11.89,5.3c.5.22.91.76.91,1.19s-.45.72-.99.64l-14.53-2.08Z"/>
      </g>
      <path class="cls-2" d="m90,31.3c-.44,0-.88.15-1.23.46l-21.27,18.36v-2.93c0-2.75-2.24-5.2-4.98-5.44l-12.54-1.12c-2.74-.24-7.22-.25-9.96-.02l-13.68,1.16c-2.74.23-4.98,2.67-4.98,5.42v1.94L1.23,31.76c-.36-.31-.8-.46-1.23-.46v4.39s21.27,18.36,21.27,18.36c.03.03.06.04.09.07v9.18L0,60.86v3.8s21.36,2.44,21.36,2.44v4.78c0,2.75,2.24,5.19,4.98,5.43l13.11,1.14c2.74.24,7.22.24,9.96,0l13.11-1.14c2.74-.24,4.98-2.68,4.98-5.43v-4.65l22.5-2.57v-3.8s-22.5,2.57-22.5,2.57v-8.92h0c.44,0,.88-.15,1.23-.46l21.27-18.36v-4.39Z"/>
    </g>
  </g>
</svg>