<?xml version="1.0" encoding="UTF-8"?>
<svg id="Calque_2" data-name="Calque 2" xmlns="http://www.w3.org/2000/svg" viewBox="0 0 90 90">
  <defs>
    <style>
      .cls-1 {
        fill: #999;
      }

      .cls-1, .cls-2 {
        stroke-width: 0px;
      }

      .cls-2 {
        fill: #fff;
        opacity: .8;
      }
    </style>
  </defs>
  <g id="Object">
    <g>
      <g>
        <rect class="cls-1" width="90" height="90"/>
        <path class="cls-2" d="m34.86,25.86c0,4.05-3.28,7.33-7.33,7.33s-7.33-3.28-7.33-7.33,3.28-7.33,7.33-7.33,7.33,3.28,7.33,7.33Z"/>
        <path class="cls-2" d="m69.5,25.86c0,4.05-3.28,7.33-7.33,7.33s-7.33-3.28-7.33-7.33,3.28-7.33,7.33-7.33,7.33,3.28,7.33,7.33Z"/>
      </g>
      <polygon class="cls-2" points="60 67.66 49.84 57.5 60 47.34 55.16 42.5 45 52.66 34.84 42.5 30 47.34 40.16 57.5 30 67.66 34.84 72.5 45 62.34 55.16 72.5 60 67.66"/>
    </g>
  </g>
</svg>