<?xml version="1.0" encoding="UTF-8"?>
<svg id="Calque_2" data-name="Calque 2" xmlns="http://www.w3.org/2000/svg" viewBox="0 0 90 90">
  <defs>
    <style>
      .cls-1 {
        fill: #999;
      }

      .cls-1, .cls-2 {
        stroke-width: 0px;
      }

      .cls-2 {
        fill: #fff;
        opacity: .8;
      }
    </style>
  </defs>
  <g id="Object">
    <g>
      <g>
        <rect class="cls-1" width="90" height="90"/>
        <path class="cls-2" d="m34.86,31.86c0,4.05-3.28,7.33-7.33,7.33s-7.33-3.28-7.33-7.33,3.28-7.33,7.33-7.33,7.33,3.28,7.33,7.33Z"/>
        <path class="cls-2" d="m69.5,31.86c0,4.05-3.28,7.33-7.33,7.33s-7.33-3.28-7.33-7.33,3.28-7.33,7.33-7.33,7.33,3.28,7.33,7.33Z"/>
      </g>
      <path class="cls-2" d="m54.21,48.35c-4.65,0-7.6,1.31-9.21,3.45-1.61-2.14-4.56-3.45-9.21-3.45-10.41,0-16.33,15.61-26.2,7.18,0,5.79,4.13,14.35,16.69,14.35,9.26,0,15.88-4.29,18.72-8.56,2.84,4.27,9.46,8.56,18.72,8.56,12.56,0,16.69-8.57,16.69-14.35-9.87,8.43-15.79-7.18-26.2-7.18Z"/>
    </g>
  </g>
</svg>