<?xml version="1.0" encoding="UTF-8"?>
<svg id="Calque_2" data-name="Calque 2" xmlns="http://www.w3.org/2000/svg" viewBox="0 0 90.25 90">
  <defs>
    <style>
      .cls-1 {
        fill: #999;
      }

      .cls-1, .cls-2 {
        stroke-width: 0px;
      }

      .cls-2 {
        fill: #fff;
      }

      .cls-2, .cls-3 {
        opacity: .8;
      }

      .cls-3 {
        fill: none;
        stroke: #fff;
        stroke-linecap: round;
        stroke-miterlimit: 10;
        stroke-width: 3.78px;
      }
    </style>
  </defs>
  <g id="Object">
    <g>
      <g>
        <rect class="cls-1" x=".09" width="90" height="90"/>
        <path class="cls-3" d="m63.05,58.52c-.79,4.43-8.04,11.97-17.96,11.97s-14.97-5.99-17.96-11.97"/>
        <circle class="cls-2" cx="27.62" cy="31.86" r="2.5"/>
        <circle class="cls-2" cx="62.26" cy="31.86" r="2.5"/>
      </g>
      <path class="cls-2" d="m90.25,30.36h-16.58c-.74-5.64-5.56-10.01-11.4-10.01s-10.66,4.37-11.4,10.01h-11.85c-.74-5.63-5.56-10-11.39-10s-10.65,4.37-11.39,10H0v3h16.23c.74,5.63,5.56,10,11.39,10s10.65-4.37,11.39-10h11.85c.74,5.64,5.56,10.01,11.4,10.01s10.66-4.37,11.4-10.01h16.58v-3Zm-62.63,10c-4.69,0-8.5-3.81-8.5-8.5s3.81-8.5,8.5-8.5,8.5,3.81,8.5,8.5-3.81,8.5-8.5,8.5Zm34.64.01c-4.69,0-8.51-3.82-8.51-8.51s3.82-8.51,8.51-8.51,8.51,3.82,8.51,8.51-3.82,8.51-8.51,8.51Z"/>
    </g>
  </g>
</svg>