<?xml version="1.0" encoding="UTF-8"?>
<svg id="Calque_2" data-name="Calque 2" xmlns="http://www.w3.org/2000/svg" viewBox="0 0 90 90">
  <defs>
    <style>
      .cls-1 {
        fill: #999;
      }

      .cls-1, .cls-2 {
        stroke-width: 0px;
      }

      .cls-2 {
        fill: #fff;
      }

      .cls-2, .cls-3 {
        opacity: .8;
      }

      .cls-3 {
        fill: none;
        stroke: #fff;
        stroke-linecap: round;
        stroke-miterlimit: 10;
        stroke-width: 3.78px;
      }
    </style>
  </defs>
  <g id="Object">
    <g>
      <g>
        <rect class="cls-1" width="90" height="90"/>
        <path class="cls-2" d="m34.86,25.86c0,4.05-3.28,7.33-7.33,7.33s-7.33-3.28-7.33-7.33,3.28-7.33,7.33-7.33,7.33,3.28,7.33,7.33Z"/>
        <path class="cls-2" d="m69.5,25.86c0,4.05-3.28,7.33-7.33,7.33s-7.33-3.28-7.33-7.33,3.28-7.33,7.33-7.33,7.33,3.28,7.33,7.33Z"/>
      </g>
      <path class="cls-3" d="m24.28,61c0-7.57,7.98-8.15,7.98,0,0,8.69,8.83,9.54,8.83,0,0-7.96,8.65-7.41,8.65,0,0,8.1,8.16,8.45,8.16,0s8.87-7.66,8.87.69"/>
    </g>
  </g>
</svg>