<?xml version="1.0" encoding="UTF-8"?>
<svg id="Calque_2" data-name="Calque 2" xmlns="http://www.w3.org/2000/svg" viewBox="0 0 90 90">
  <defs>
    <style>
      .cls-1 {
        fill: #999;
      }

      .cls-1, .cls-2, .cls-3 {
        stroke-width: 0px;
      }

      .cls-2, .cls-4 {
        opacity: .8;
      }

      .cls-2, .cls-3 {
        fill: #fff;
      }
    </style>
  </defs>
  <g id="Object">
    <g>
      <g>
        <rect class="cls-1" width="90" height="90"/>
        <path class="cls-2" d="m34.86,31.86c0,4.05-3.28,1.33-7.33,1.33s-7.33,2.72-7.33-1.33,3.28-7.33,7.33-7.33,7.33,3.28,7.33,7.33Z"/>
        <path class="cls-2" d="m69.5,31.86c0,4.05-3.28,1.33-7.33,1.33s-7.33,2.72-7.33-1.33,3.28-7.33,7.33-7.33,7.33,3.28,7.33,7.33Z"/>
      </g>
      <g class="cls-4">
        <path class="cls-3" d="m69.5,65.53c0,6.6-5.15,10.38-11.45,8.4l-2.55-.8c-6.3-1.98-16.57-1.88-22.83.22l-1.1.37c-6.26,2.1-11.38-1.58-11.38-8.18v-3.33c0-6.6,5.07-10.15,11.27-7.88l2.11.77c6.2,2.26,16.35,2.26,22.54,0l2.11-.77c6.2-2.26,11.27,1.29,11.27,7.88v3.33Z"/>
      </g>
    </g>
  </g>
</svg>