<?xml version="1.0" encoding="UTF-8"?>
<svg id="Calque_2" data-name="Calque 2" xmlns="http://www.w3.org/2000/svg" viewBox="0 0 90 90">
  <defs>
    <style>
      .cls-1 {
        fill: #999;
      }

      .cls-1, .cls-2 {
        stroke-width: 0px;
      }

      .cls-3, .cls-2, .cls-4 {
        opacity: .8;
      }

      .cls-3, .cls-4 {
        fill: none;
        stroke: #fff;
        stroke-miterlimit: 10;
        stroke-width: 2.62px;
      }

      .cls-2 {
        fill: #fff;
      }

      .cls-4 {
        stroke-linecap: round;
      }
    </style>
  </defs>
  <g id="Object">
    <g>
      <g>
        <rect class="cls-1" width="90" height="90"/>
        <path class="cls-2" d="m31.53,25.86c0,2.33-1.79,4.22-4,4.22s-4-1.89-4-4.22,1.79-4.22,4-4.22,4,1.89,4,4.22Z"/>
        <path class="cls-2" d="m64.83,25.86c0,2.33-1.79,4.22-4,4.22s-4-1.89-4-4.22,1.79-4.22,4-4.22,4,1.89,4,4.22Z"/>
      </g>
      <rect class="cls-4" x="10.37" y="14.72" width="29.86" height="22.76"/>
      <rect class="cls-4" x="50.03" y="14.72" width="29.86" height="22.76"/>
      <rect class="cls-2" x="18.27" y="54.96" width="6.7" height="9.55"/>
      <rect class="cls-2" x="27.73" y="54.96" width="6.7" height="9.55"/>
      <rect class="cls-2" x="37.2" y="54.96" width="6.7" height="9.55"/>
      <rect class="cls-2" x="46.66" y="54.96" width="6.7" height="9.55"/>
      <rect class="cls-2" x="56.12" y="54.96" width="6.7" height="9.55"/>
      <rect class="cls-2" x="65.58" y="54.96" width="6.7" height="9.55"/>
      <rect class="cls-2" x="18.27" y="66.24" width="6.7" height="9.55"/>
      <rect class="cls-2" x="27.73" y="66.24" width="6.7" height="9.55"/>
      <rect class="cls-2" x="37.2" y="66.24" width="6.7" height="9.55"/>
      <rect class="cls-2" x="46.66" y="66.24" width="6.7" height="9.55"/>
      <rect class="cls-2" x="56.12" y="66.24" width="6.7" height="9.55"/>
      <rect class="cls-2" x="65.58" y="66.24" width="6.7" height="9.55"/>
      <line class="cls-3" x1="41.54" y1="26.1" x2="48.69" y2="26.1"/>
    </g>
  </g>
</svg>