<?xml version="1.0" encoding="UTF-8"?>
<svg id="Calque_2" data-name="Calque 2" xmlns="http://www.w3.org/2000/svg" viewBox="0 0 90 90">
  <defs>
    <style>
      .cls-1 {
        fill: #999;
      }

      .cls-1, .cls-2, .cls-3 {
        stroke-width: 0px;
      }

      .cls-2, .cls-4 {
        opacity: .8;
      }

      .cls-2, .cls-3 {
        fill: #fff;
      }
    </style>
  </defs>
  <g id="Object">
    <g>
      <g>
        <rect class="cls-1" width="90" height="90"/>
        <g class="cls-4">
          <path class="cls-3" d="m35.83,21.11l-5.13,5.48,5.13,5.52c.46.51.35,1.25-.32,1.61-.27.15-.57.23-.86.23-.49,0-.92-.19-1.21-.49l-4.54-4.9-4.56,4.9c-.3.3-.73.49-1.19.49-.32,0-.62-.08-.86-.23-.67-.36-.81-1.1-.35-1.61l5.13-5.52-5.13-5.48c-.46-.53-.32-1.25.35-1.61.65-.4,1.59-.3,2.05.25l4.56,4.88,4.54-4.88c.51-.55,1.4-.66,2.08-.25.67.36.78,1.08.32,1.61Z"/>
        </g>
        <g class="cls-4">
          <path class="cls-3" d="m69.16,21.11l-5.13,5.48,5.13,5.52c.46.51.35,1.25-.32,1.61-.27.15-.57.23-.86.23-.49,0-.92-.19-1.21-.49l-4.54-4.9-4.56,4.9c-.3.3-.73.49-1.19.49-.32,0-.62-.08-.86-.23-.67-.36-.81-1.1-.35-1.61l5.13-5.52-5.13-5.48c-.46-.53-.32-1.25.35-1.61.65-.4,1.59-.3,2.05.25l4.56,4.88,4.54-4.88c.51-.55,1.4-.66,2.08-.25.67.36.78,1.08.32,1.61Z"/>
        </g>
      </g>
      <polygon class="cls-2" points="60 70.16 49.83 60 60 49.84 55.16 45 45 55.16 34.83 45 30 49.84 40.16 60 30 70.16 34.83 75 45 64.84 55.16 75 60 70.16"/>
    </g>
  </g>
</svg>